<svg xmlns="http://www.w3.org/2000/svg" viewBox="0 0 858.81 704"><defs><style>.cls-1{fill:#fff;stroke:#38e1e5;}.cls-1,.cls-2{stroke-miterlimit:10;}.cls-2{fill:#38e1e5;stroke:#fff;}</style></defs><g id="Layer_2" data-name="Layer 2"><g id="Layer_1-2" data-name="Layer 1"><circle class="cls-1" cx="432.29" cy="352" r="351.5"/><path class="cls-2" d="M19.54,326.44c.78-2.15,3.33-2.55,5.3-2.55,5.88,0,30.81,5.3,27.47,14.92C47.8,353.72,38.18,386.89,37.4,400c-.4,6.28,1.76,9.42,4.12,9.42,10,0,15.31-18.64,16.29-25.32,0,0,17.27-.58,17.27,13,0,13.93-20.41,32-43.77,32-18.84,0-30.81-9-30.81-28.26C.5,384,13.45,340.38,19.54,326.44Zm4.71-26.69c0-6.67,4.71-26.3,22.37-26.3,9,0,14.52,1.38,12,8.84,5.3,2,10.6,4.51,10.6,10.79,0,7.46-7.46,21.39-29.83,21.39C33.47,314.47,24.25,310.15,24.25,299.75Z"/><path class="cls-2" d="M111.77,368.44c-8.24,15.31-18.25,42-19,57.9,0,0-5.89,3.53-15.9,3.53-13.93,0-17.47-10.79-17.47-25.71,0-41.8,10-85,23.36-85,7.06,0,18.84,3.93,17.66,8.25-4.51,16.29-8.83,32.18-10,48.86h.79c8-18.84,15.89-39.05,26.89-57.3.78-1.57,2.94-3.93,8-3.93,8.24,0,28.26,6.48,27.48,12.76-3,20.41-15.7,50.44-15.7,70.85,0,8.63,2.16,12.95,7.26,12.95,5.89,0,11.58-15.11,13.15-19.63,0,0,14.52-1.37,14.52,10.8,0,8.44-13.15,27.28-34.54,27.28-24.53,0-31.4-15.11-30.62-28.85.4-7.46,4.12-24.14,6.28-32.78Z"/><path class="cls-2" d="M197.93,413.78c15.31,0,26.1-9.81,26.1-28.26,0-32.58-34.15-47.89-53.58-51.62-3.53-.78-8-23.16-8-24.73-.59-12.75,74.18-27.67,103.62-25.9,5.3.39,12,16.88,12,19.23,0,9.42-19.43,23.75-26.89,23.75-2,0-5.69-2-5.69-3.34,0-1.76,2.16-6.47,2.16-8.63,0-3.14-30,2.94-44,10.2C216,329,266.23,349.8,266.23,393.37c0,27.08-26.11,39.84-55.94,39.84-39,0-61.62-22.77-61.62-42.2,0-12.95,7.46-25.31,19-25.31,12.36,0,23.55,7.65,24.72,12-3.73,4.12-8.24,13.93-8.24,22.37C184.19,407.3,189.1,413.78,197.93,413.78Z"/><path class="cls-2" d="M264.66,328.21c3.14-1.77,14.91-3.92,28.26-5.89,5.49-13.34,10.79-23.55,14.13-25.12,5.1-2.35,26.3,7.46,25.71,9.42l-3.93,11.58,6.28-.39c6.48-.39,12.37-1.18,13.94,1.37,2,2.75,6.08,4.71,10.2,6.28,1.57.59,6.09,10.8,6.09,12,0,1.37-.59,2.94-4.52,2.94-11.18.2-25.51,1.18-39.64,2.55C314.9,364.32,309,386.7,309,399.45c0,5.69,2.55,8.25,5.89,8.25,15.31,0,25.71-18.45,27.08-27.48,0,0,17.08-2.55,17.08,14.72,0,20.41-26.11,33.17-50.44,33.17-20.41,0-34.94-13.35-34.94-34.15,0-10,4.32-28.46,10.21-46.71-3.53.39-6.48,1-8.44,1.18C267.6,349.6,260.73,330.57,264.66,328.21Z"/><path class="cls-2" d="M370.63,326.44c.79-2.15,3.34-2.55,5.3-2.55,5.89,0,30.81,5.3,27.48,14.92-4.52,14.91-14.13,48.08-14.92,61.23-.39,6.28,1.77,9.42,4.12,9.42,10,0,15.31-18.64,16.29-25.32,0,0,17.27-.58,17.27,13,0,13.93-20.41,32-43.76,32-18.84,0-30.82-9-30.82-28.26C351.59,384,364.55,340.38,370.63,326.44Zm4.71-26.69c0-6.67,4.71-26.3,22.37-26.3,9,0,14.53,1.38,12,8.84,5.3,2,10.59,4.51,10.59,10.79,0,7.46-7.45,21.39-29.83,21.39C384.57,314.47,375.34,310.15,375.34,299.75Z"/><path class="cls-2" d="M406.74,328.21c3.14-1.77,14.92-3.92,28.26-5.89,5.5-13.34,10.8-23.55,14.13-25.12,5.1-2.35,26.3,7.46,25.71,9.42l-3.92,11.58,6.28-.39c6.47-.39,12.36-1.18,13.93,1.37,2,2.75,6.08,4.71,10.21,6.28,1.57.59,6.08,10.8,6.08,12,0,1.37-.59,2.94-4.51,2.94-11.19.2-25.52,1.18-39.65,2.55-6.28,21.39-12.17,43.77-12.17,56.52,0,5.69,2.56,8.25,5.89,8.25,15.31,0,25.71-18.45,27.09-27.48,0,0,17.07-2.55,17.07,14.72,0,20.41-26.1,33.17-50.44,33.17-20.41,0-34.93-13.35-34.93-34.15,0-10,4.32-28.46,10.2-46.71-3.53.39-6.47,1-8.44,1.18C409.68,349.6,402.81,330.57,406.74,328.21Z"/><path class="cls-2" d="M542,322.13c15.11,0,35.72,9.42,35.72,25.31,0,17.86-8.83,28.66-19.43,28.66-7.65,0-12-3.34-13.54-8.64v-1.18s7.06-11.57,7.85-23c0-2.55-.79-3.92-2.75-3.92-8.24,0-19.43,22.17-19.43,50.24,0,17.66,7.06,23,15.7,23,15.31,0,25.12-16.48,26.89-30.42a22,22,0,0,1,9.42-2.35c7.65,0,13.15,5.49,13.15,14.72,0,12.36-13.94,36.89-50.64,36.89-27.28,0-51.22-16.88-51.22-44.74C493.68,360,509.18,322.13,542,322.13Z"/><path class="cls-2" d="M640.08,361.57c-3.33,4.52-18.64,38.67-20.21,63a21.7,21.7,0,0,1-10.8,2.75c-13.73,0-26.29-7.06-26.29-20,0-16.09,13.34-124.42,24.92-132.86,4.51-3.14,28.65,3.14,28.65,7.85,0,9.81-4.12,18.84-6.08,24.72-3.34,9.82-12.56,58.69-12.56,66.34l1.37.39c3.93-11.18,22.77-58.29,31-58.29,18.45,0,31.8,9.42,31.8,13.74,0,10-14.92,52-14.92,71.05,0,6.67,2.55,12.17,7.85,12.17,7.66,0,13.54-12.76,14.92-23.75,0,0,16.87-2,16.87,10,0,14.91-18.44,29-41.8,29-20.8,0-28.65-12-28.65-28.85,0-11,4.51-32.38,5.89-37.09Z"/><path class="cls-2" d="M732.12,314.87c11.39,0,32.39,8.43,32.39,30,0,25.12-15.12,44.75-27.87,44.75a19.42,19.42,0,0,1-16.88-9.22,64.51,64.51,0,0,0-4.32,23.74c0,9.62,4.32,13.74,11.58,13.74,18.45,0,29.64-21,31.6-32.19a9.75,9.75,0,0,1,5.3-1.57c9,0,16.48,3.54,16.48,11.58,0,15.9-14.91,40.83-48.47,40.83-23,0-47.3-13.94-47.3-38.47C684.63,362.36,702.49,314.87,732.12,314.87Zm-5.49,56.71c6.47,0,11.58-18.05,11.77-31.4.2-7.26-1-8-2-8-.78,0-1.57.58-2.75,3.14-4.31,9.22-9.42,22.17-11.38,32.18C722.31,367.46,723.1,371.58,726.63,371.58Z"/><path class="cls-2" d="M804.93,353.53s44.16,14.91,44.16,49.06c0,22.57-18.25,31-38.86,31-25.12,0-50.44-21-50.44-36.5,0-11.19,6.68-24.14,17.67-24.14,10.79,0,19.43,7.85,19.23,9.42-.39,5.3-9.22,20.21-9.22,21.78-.2,1.38,2.74,8.44,11.58,8.44,9.81,0,15.5-7.85,15.5-19.43,0-17.27-22.77-30.81-36.9-32.77-2.55-2.55-7.85-17.67-7.26-22.77,1.18-8.24,70.85-21.19,75.36-21.19,3.15,0,12.56,14.32,12.56,17.85,0,7.46-16.28,18.26-23.74,18.26-3,0-3.93-5.3-6.87-5.3-8.05.19-21,3.92-23.16,5.49Z"/></g></g></svg>